    <svg xmlns="http://www.w3.org/2000/svg" xmlns:xlink="http://www.w3.org/1999/xlink" version="1.1" width="256" height="256" viewBox="0 0 256 256" xml:space="preserve">

<defs>
</defs>
<g style="stroke: none; stroke-width: 0; stroke-dasharray: none; stroke-linecap: butt; stroke-linejoin: miter; stroke-miterlimit: 10; fill: none; fill-rule: nonzero; opacity: 1;" transform="translate(1.4065934065934016 1.4065934065934016) scale(2.81 2.81)" >
	<path d="M 46.653 34.515 c -0.007 0 -0.013 0 -0.02 0 H 21.718 v 16.542 c 0.011 2.442 2.004 4.419 4.478 4.42 h 24.916 l -0.001 -16.543 C 51.101 36.5 49.103 34.515 46.653 34.515 z" style="stroke: none; stroke-width: 1; stroke-dasharray: none; stroke-linecap: butt; stroke-linejoin: miter; stroke-miterlimit: 10; fill: rgb(0,0,0); fill-rule: nonzero; opacity: 1;" transform=" matrix(1 0 0 1 0 0) " stroke-linecap="round" />
	<polygon points="61.64,48.52 68.28,53.37 68.28,36.65 61.64,41.51 " style="stroke: none; stroke-width: 1; stroke-dasharray: none; stroke-linecap: butt; stroke-linejoin: miter; stroke-miterlimit: 10; fill: rgb(0,0,0); fill-rule: nonzero; opacity: 1;" transform="  matrix(1 0 0 1 0 0) "/>
	<path d="M 45 0 C 20.187 0 0 20.187 0 45 c 0 24.813 20.187 45 45 45 c 24.813 0 45 -20.187 45 -45 C 90 20.187 69.813 0 45 0 z M 74.281 57.217 c 0 2.49 -1.329 3.515 -2.122 3.903 c -0.311 0.152 -0.87 0.362 -1.596 0.362 c -0.778 0 -1.748 -0.242 -2.803 -1.059 l -10.649 -7.782 v 4.486 c -0.057 2.43 -2.015 4.35 -4.366 4.35 H 26.209 c -0.015 0 -0.03 0 -0.045 0 c -5.733 0 -10.42 -4.658 -10.445 -10.407 l 0.001 -18.259 c 0.056 -2.353 1.942 -4.24 4.295 -4.295 l 26.607 -0.001 c 0.015 0 0.03 0 0.045 0 c 5.242 0 9.597 3.898 10.327 8.958 l 10.779 -7.879 c 1.985 -1.575 3.688 -1.04 4.336 -0.732 c 0.812 0.386 2.174 1.412 2.174 3.949 V 57.217 z" style="stroke: none; stroke-width: 1; stroke-dasharray: none; stroke-linecap: butt; stroke-linejoin: miter; stroke-miterlimit: 10; fill: rgb(0,0,0); fill-rule: nonzero; opacity: 1;" transform=" matrix(1 0 0 1 0 0) " stroke-linecap="round" />
</g>
</svg>